<svg xmlns="http://www.w3.org/2000/svg" viewBox="0 0 300 300">
  <rect width="300" height="300" rx="60" fill="#DFF3FF"/>
  <circle cx="86" cy="84" r="34" fill="#56C8FF"/>
  <circle cx="214" cy="84" r="34" fill="#56C8FF"/>
  <ellipse cx="150" cy="175" rx="92" ry="92" fill="#56C8FF"/>
  <ellipse cx="150" cy="168" rx="72" ry="78" fill="#FFE8D6"/>
  <path d="M76 150 Q76 70 150 66 Q224 70 224 150 Q206 112 180 124 Q164 100 150 124 Q134 100 118 124 Q94 112 76 150" fill="#56C8FF"/>
  <path d="M96 118 Q86 150 92 186" stroke="#56C8FF" stroke-width="16" fill="none" stroke-linecap="round"/>
  <path d="M204 118 Q214 150 208 186" stroke="#56C8FF" stroke-width="16" fill="none" stroke-linecap="round"/>
  <ellipse cx="122" cy="172" rx="13" ry="17" fill="#2E86DE"/>
  <ellipse cx="178" cy="172" rx="13" ry="17" fill="#2E86DE"/>
  <ellipse cx="122" cy="174" rx="7" ry="11" fill="#2E2645"/>
  <ellipse cx="178" cy="174" rx="7" ry="11" fill="#2E2645"/>
  <circle cx="126" cy="166" r="4" fill="#FFFFFF"/>
  <circle cx="182" cy="166" r="4" fill="#FFFFFF"/>
  <ellipse cx="102" cy="198" rx="12" ry="7" fill="#FF9EBB" opacity="0.7"/>
  <ellipse cx="198" cy="198" rx="12" ry="7" fill="#FF9EBB" opacity="0.7"/>
  <path d="M138 207 Q150 217 162 207" stroke="#C25B7A" stroke-width="4" fill="none" stroke-linecap="round"/>
</svg>
